<?xml version="1.0" standalone="no"?>
<!DOCTYPE svg PUBLIC "-//W3C//DTD SVG 20010904//EN"
 "http://www.w3.org/TR/2001/REC-SVG-20010904/DTD/svg10.dtd">
<svg version="1.0" xmlns="http://www.w3.org/2000/svg"
 width="301.000000pt" height="202.000000pt" viewBox="0 0 301.000000 202.000000"
 preserveAspectRatio="xMidYMid meet">

<g transform="translate(0.000000,202.000000) scale(0.100000,-0.100000)"
fill="#005672" stroke="none">
<path d="M646 1999 c5 -8 -4 -10 -29 -7 -21 2 -33 0 -30 -6 4 -5 -3 -7 -15 -4
-14 4 -20 2 -15 -5 4 -7 0 -8 -11 -4 -11 5 -15 3 -10 -5 5 -7 2 -9 -8 -5 -19
7 -88 -62 -80 -82 3 -8 0 -11 -7 -7 -7 5 -9 1 -4 -10 4 -11 3 -15 -4 -11 -7 5
-9 -1 -5 -15 3 -12 1 -19 -5 -15 -5 4 -8 -6 -5 -25 3 -21 1 -29 -7 -24 -8 5
-11 -143 -11 -574 0 -431 3 -579 11 -574 8 5 10 -3 7 -24 -3 -19 0 -29 5 -25
6 4 8 -3 5 -15 -4 -12 -3 -20 2 -17 4 3 11 -2 14 -11 3 -8 2 -12 -4 -9 -20 12
-9 -6 27 -46 33 -36 104 -85 89 -61 -4 6 2 8 14 5 11 -3 17 -9 15 -14 -3 -4
11 -5 31 -2 27 4 35 3 30 -5 -5 -9 207 -12 864 -12 657 0 869 3 864 12 -5 8 3
9 30 5 20 -3 34 -2 31 2 -2 5 4 11 15 14 12 3 18 1 14 -5 -15 -24 56 25 89 61
36 40 47 58 27 46 -6 -3 -7 1 -4 9 3 9 10 14 14 11 5 -3 6 5 2 17 -3 14 -1 19
6 14 7 -4 9 5 5 30 -4 27 -3 35 5 30 9 -5 12 134 12 564 0 421 -3 569 -11 564
-8 -5 -10 4 -7 29 2 21 0 33 -6 30 -5 -4 -7 3 -4 15 4 14 2 20 -5 15 -7 -4 -8
0 -4 11 5 11 3 15 -5 10 -7 -5 -9 -2 -5 8 7 19 -62 88 -82 80 -8 -3 -11 0 -7
7 5 7 1 9 -10 4 -11 -4 -15 -3 -11 4 5 7 -1 9 -15 5 -12 -3 -19 -1 -15 4 3 6
-9 8 -30 6 -25 -3 -34 -1 -29 7 5 8 -221 11 -864 11 -643 0 -869 -3 -864 -11z
m-126 -42 c0 -2 -17 -19 -37 -38 l-38 -34 34 38 c33 34 41 42 41 34z m2020
-32 c19 -19 32 -35 29 -35 -3 0 -20 16 -39 35 -19 19 -32 35 -29 35 3 0 20
-16 39 -35z m-143 -138 c5 -6 5 -1169 0 -1174 -5 -5 -1769 -5 -1774 1 -5 5 -4
1166 1 1174 4 7 1766 5 1773 -1z m-1907 -1312 c19 -19 32 -35 29 -35 -3 0 -20
16 -39 35 -19 19 -32 35 -29 35 3 0 20 -16 39 -35z m2080 32 c0 -2 -17 -19
-37 -38 l-38 -34 34 38 c33 34 41 42 41 34z"/>
<path d="M1726 1700 c-80 -51 -125 -122 -133 -211 -8 -85 11 -142 66 -198 25
-26 32 -31 15 -12 -46 52 -65 97 -71 161 -6 65 7 118 45 173 30 45 96 94 138
101 26 5 26 5 -4 -6 -86 -30 -172 -148 -172 -238 0 -80 18 -121 78 -180 107
-104 236 -109 343 -12 62 56 79 87 89 171 l9 66 -3 -65 c-4 -72 -22 -116 -70
-171 -17 -19 -10 -14 15 12 55 56 74 113 66 198 -5 65 -23 104 -68 155 -58 67
-91 80 -202 81 -91 1 -103 -1 -141 -25z m288 -19 c48 -33 92 -92 101 -136 5
-21 -1 -15 -18 20 -29 60 -103 129 -155 144 -35 10 -36 10 -4 6 18 -3 52 -18
76 -34z"/>
<path d="M740 1560 c0 -20 7 -20 275 -20 268 0 275 0 275 20 0 20 -7 20 -275
20 -268 0 -275 0 -275 -20z"/>
<path d="M740 1320 c0 -20 7 -20 275 -20 268 0 275 0 275 20 0 20 -7 20 -275
20 -268 0 -275 0 -275 -20z"/>
<path d="M1557 1246 c-63 -23 -104 -62 -139 -133 -32 -66 -33 -70 -33 -203 -1
-116 2 -139 18 -165 44 -69 25 -66 462 -66 432 0 413 -3 460 59 28 38 30 254
3 331 -26 78 -61 126 -110 154 -73 42 -101 43 -158 7 -28 -18 -50 -34 -50 -37
0 -3 11 2 25 11 14 9 36 23 48 31 46 30 147 -10 193 -76 30 -44 64 -148 63
-192 -1 -23 -4 -16 -10 23 -17 100 -72 196 -129 225 -58 29 -87 27 -147 -12
-31 -20 -77 -42 -102 -50 -91 -27 -177 -11 -274 50 -60 39 -89 41 -147 12 -57
-29 -112 -125 -129 -225 -6 -39 -9 -46 -10 -23 -1 44 33 148 63 192 45 64 149
106 191 78 49 -34 75 -49 75 -44 0 9 -96 67 -111 67 -8 -1 -31 -7 -52 -14z
m-148 -481 c0 -5 -4 -3 -9 5 -5 8 -9 22 -9 30 0 16 17 -16 18 -35z m921 8
c-11 -17 -11 -17 -6 0 3 10 6 24 7 30 0 9 2 9 5 0 3 -7 0 -20 -6 -30z m-840
-77 c19 -8 29 -15 22 -16 -21 0 -65 26 -87 51 l-20 24 25 -22 c14 -12 41 -29
60 -37z m814 33 c-21 -24 -66 -49 -86 -49 -7 0 5 9 27 19 22 10 46 25 54 34 7
10 16 17 19 17 3 0 -3 -9 -14 -21z"/>
<path d="M1720 1234 c0 -16 92 -44 145 -44 53 0 145 28 145 44 0 3 -19 -4 -42
-14 -27 -12 -65 -20 -103 -20 -38 0 -76 8 -102 20 -24 10 -43 17 -43 14z"/>
<path d="M1740 1180 c8 -5 20 -10 25 -10 6 0 3 5 -5 10 -8 5 -19 10 -25 10 -5
0 -3 -5 5 -10z"/>
<path d="M1970 1180 c-8 -5 -10 -10 -5 -10 6 0 17 5 25 10 8 5 11 10 5 10 -5
0 -17 -5 -25 -10z"/>
<path d="M1788 1163 c7 -3 16 -2 19 1 4 3 -2 6 -13 5 -11 0 -14 -3 -6 -6z"/>
<path d="M1928 1163 c7 -3 16 -2 19 1 4 3 -2 6 -13 5 -11 0 -14 -3 -6 -6z"/>
<path d="M1843 1153 c15 -2 37 -2 50 0 12 2 0 4 -28 4 -27 0 -38 -2 -22 -4z"/>
<path d="M740 1100 c0 -20 7 -20 275 -20 268 0 275 0 275 20 0 20 -7 20 -275
20 -268 0 -275 0 -275 -20z"/>
<path d="M740 860 c0 -20 7 -20 275 -20 268 0 275 0 275 20 0 20 -7 20 -275
20 -268 0 -275 0 -275 -20z"/>
<path d="M0 219 c0 -66 3 -88 12 -83 8 5 9 0 6 -14 -4 -14 -2 -20 5 -15 6 4 8
0 4 -9 -3 -9 3 -24 16 -35 30 -27 52 -40 43 -24 -6 8 -1 8 18 0 14 -7 23 -16
19 -22 -3 -5 3 -6 17 -2 15 5 20 4 16 -4 -5 -7 381 -10 1354 -10 973 0 1359 3
1354 10 -4 8 1 9 16 4 14 -4 20 -3 17 2 -4 6 5 15 19 22 19 8 24 8 18 0 -9
-16 13 -3 43 24 13 11 19 26 16 35 -4 8 -2 13 3 9 6 -3 11 37 13 99 l3 104
-1506 0 -1506 0 0 -91z m1657 -44 c0 -19 -6 -20 -147 -20 -141 0 -148 1 -148
20 0 19 7 20 148 20 141 0 147 -1 147 -20z m-1602 -105 c10 -11 16 -20 13 -20
-3 0 -13 9 -23 20 -10 11 -16 20 -13 20 3 0 13 -9 23 -20z m2935 17 c0 -2 -10
-12 -22 -23 l-23 -19 19 23 c18 21 26 27 26 19z"/>
</g>
</svg>
