<?xml version="1.0" standalone="no"?>
<!DOCTYPE svg PUBLIC "-//W3C//DTD SVG 20010904//EN"
 "http://www.w3.org/TR/2001/REC-SVG-20010904/DTD/svg10.dtd">
<svg version="1.0" xmlns="http://www.w3.org/2000/svg"
 width="70.000000pt" height="70.000000pt" viewBox="0 0 70.000000 70.000000"
 preserveAspectRatio="xMidYMid meet">

<g transform="translate(0.000000,70.000000) scale(0.100000,-0.100000)"
fill="#008800" stroke="none">
<path d="M308 677 c-27 -28 -58 -37 -96 -31 -34 5 -42 3 -60 -21 -12 -15 -22
-35 -22 -45 0 -20 -26 -45 -58 -54 -34 -11 -44 -40 -36 -102 5 -45 3 -58 -11
-74 -27 -29 -22 -67 14 -104 23 -24 31 -41 31 -68 0 -48 27 -79 76 -87 29 -5
44 -14 59 -38 29 -45 52 -53 103 -34 38 14 46 14 85 0 50 -19 73 -11 102 34
15 24 30 33 59 38 49 8 76 39 76 87 0 27 8 44 31 68 36 37 41 75 14 104 -14
16 -16 29 -11 74 8 62 -2 91 -36 102 -32 9 -58 34 -58 54 0 10 -10 30 -22 45
-18 24 -26 26 -60 21 -38 -6 -69 3 -96 31 -7 7 -26 13 -42 13 -16 0 -35 -6
-42 -13z m220 -199 l31 -33 -125 -132 c-69 -73 -131 -133 -138 -133 -6 0 -45
34 -86 75 l-74 75 29 30 c16 16 33 30 39 30 6 0 27 -17 48 -37 l38 -37 98 97
c53 53 99 97 102 97 4 0 20 -15 38 -32z"/>
</g>
</svg>
