<?xml version="1.0" encoding="UTF-8" standalone="no"?>
<svg
        xmlns="http://www.w3.org/2000/svg"
        id="svg3228"
        viewBox="0 0 666.08 210.03"
>
    <g id="layer1" transform="translate(-49.925 -19.937)">
        <path id="path2189" style="fill:#000000"
                d="m398.27 229.79c-0.2-0.2-1.93-0.53-3.83-0.74-1.91-0.21-5.11-1.07-7.13-1.92-2.02-0.84-7.63-2.56-12.48-3.83-4.84-1.26-9.68-2.63-10.74-3.03s-2.84-0.74-3.94-0.75c-1.11-0.01-2.85-0.66-3.88-1.44l-1.85-1.43 1.26-3.62c2.31-6.62 8.69-31.27 10.27-39.68 1.65-8.78 2.91-23.19 2.45-28.04-0.24-2.51-0.57-2.96-2.46-3.34-1.84-0.37-2.18-0.8-2.18-2.74 0-1.27 0.55-3.37 1.22-4.67 1.03-2 1.14-3.9 0.69-12.53-0.57-11.06-0.78-11.66-5.71-16.6-2.75-2.75-2.95-3.25-2.95-7.229 0-5.334-1.33-4.517-2.01 1.235l-0.48 3.974-3.82-0.47c-2.1-0.25-5.08-0.67-6.61-0.93-2.7-0.46-2.81-0.38-4.03 2.65-2.09 5.22 1.41 4.94-42.33 3.43-5.99-0.21-21.86-0.71-35.27-1.12-36.27-1.09-46.06-1.58-47-2.35-0.48-0.38-1.57-2.33-2.43-4.33-1.94-4.513-3.45-5.276-4.5-2.269-0.7 1.989-1.09 2.209-4.07 2.209-3.11 0-3.37-0.17-4.49-2.817-0.65-1.548-1.39-3.753-1.63-4.901-0.44-2.04-0.54-2.075-4.3-1.576-2.97 0.394-4.04 0.257-4.67-0.603-0.45-0.612-2.09-1.316-3.64-1.565l-2.81-0.453v3.93c0 2.161-0.41 4.335-0.9 4.83-1.3 1.301-5.81 1.141-6.33-0.225-0.3-0.765-1.5-1.126-3.75-1.126-2.87 0-3.41-0.259-4.05-1.924-1.08-2.86-0.88-6.168 0.42-6.899 0.69-0.386-3.29-0.713-9.94-0.817-6.1-0.095-12.21-0.53-13.57-0.966-1.46-0.465-5.49-0.623-9.76-0.382-4 0.226-15.63 0.413-25.84 0.415-5.61 0.249-10.936 0.2-15.15 0.144-4.215-0.056-7.323-0.12-8.504 0.1-25.326-0.018-32.624-0.102-33.815-1.803-0.991-1.414-1.577-4.187-1.798-8.503-0.114-2.243 0.979-5.838 2.207-7.254 10.425-0.019 25.029-0.24 33.231-0.256 2.005 0.256 5.973 0.5 11.255 0.708 5.284 0.208 11.874 0.379 19.134 0.488 5.78 0.087 11.33 0.461 12.33 0.831 1.04 0.384 10.76 0.448 22.66 0.149l20.83-0.524 0.03-20.087c0.03-19.737 0.44-23.567 2.56-23.802 0.48-0.054 2.39-0.308 4.25-0.565 4.21-0.583 3.48-1.263 17.21 16.029 6.4 8.048 11.06 13.296 11.36 12.798 0.58-0.941 127.17-2.025 130.78-1.12 1.59 0.4 2.18 1.197 2.91 3.935l0.92 3.434 3.76-0.484c2.07-0.267 4.97-0.67 6.43-0.896 2.58-0.397 2.69-0.314 3.38 2.475 0.57 2.265 0.76 0.328 0.89-9.004 0.15-10.804 0.32-12.166 1.87-14.917 0.93-1.666 3.05-3.994 4.7-5.174 2.97-2.116 3.3-2.17 25.52-4.028 37.92-3.173 65.51-5.609 76.73-6.776 5.88-0.612 13.07-1.112 15.97-1.112 5.07 0 5.4 0.112 8.32 2.833 2.36 2.209 3.19 3.649 3.72 6.524 0.38 2.029 0.5 4.299 0.26 5.045-0.28 0.904-0.04 1.356 0.72 1.356 1.46 0 2.38 1.742 5.38 10.108 2.2 6.153 2.61 6.784 4.77 7.345 2.72 0.705 6.09 3.672 4.7 4.135-1.81 0.606-0.81 1.402 1.36 1.083 2.04-0.3 2.26-0.129 2.34 1.818 0.05 1.182 0.03 2.74-0.05 3.462-0.1 0.969 0.42 1.315 1.98 1.322 1.16 0.005 3.97 0.507 6.24 1.117 2.27 0.609 5.56 1.111 7.31 1.116 2.33 0.007 3.19 0.312 3.19 1.135 0 0.978 3.28 1.125 24.96 1.125 24.3 0 24.98-0.04 25.91-1.53 0.53-0.841 1.31-1.313 1.74-1.048s19.46 0.661 42.29 0.879l41.51 0.397 5.54-4.839c3.06-2.661 7.6-6.228 10.1-7.927s6.42-4.8 8.71-6.891c2.29-2.092 4.68-3.803 5.31-3.803 0.64 0 1.88 0.929 2.77 2.064 0.89 1.134 2.35 2.251 3.25 2.48 1.08 0.276 1.56 0.909 1.42 1.881-0.11 0.805 0.43 3.319 1.19 5.586 1.28 3.756 1.63 4.155 3.96 4.497 2.18 0.32 2.83 0.928 4.39 4.081 1.76 3.534 1.84 4.371 1.87 18.009 0.03 21.183-1.23 38.103-4.19 56.323-0.8 4.95-1.93 9.47-2.49 10.05-1.46 1.47-3.18 0.56-4.39-2.33-0.82-1.96-1.93-2.84-5.46-4.29-2.44-1-9.61-4.29-15.95-7.31-6.33-3.03-11.77-5.5-12.08-5.5s-0.63 2.42-0.72 5.38c-0.26 8.86-0.4 8.9-8.89 2.82-4.02-2.87-9.84-7.04-12.94-9.26-4.97-3.56-6.13-4.06-9.93-4.3-4.56-0.28-5.08 0.07-5.08 3.46 0 2.03-2.71 2.74-6.6 1.73-2.02-0.52-2.4-0.97-2.4-2.85 0-1.6-0.37-2.25-1.31-2.29-0.73-0.03-3.67-0.16-6.54-0.28-3.08-0.12-5.33-0.57-5.5-1.08-0.16-0.47-0.85-1.43-1.54-2.12-0.99-1-1.24-2.78-1.24-8.8v-7.55l-13.1-0.21c-11.61-0.18-13.24-0.36-14.39-1.59-1.04-1.12-2.45-1.4-7.2-1.43-5.25-0.03-6.53-0.34-11.26-2.717-5.23-2.628-5.5-2.678-14.4-2.678-5.54 0-9.06-0.292-9.06-0.751 0-1.276-8.03-0.922-8.53 0.376-0.29 0.771-1.5 1.125-3.83 1.125-1.87 0-3.41 0.253-3.43 0.563-0.16 3.432-0.91 14.102-1 14.202-0.06 0.07-2.47 0.2-5.35 0.29-3.23 0.11-6.26 0.68-7.88 1.5-3.16 1.59-6.87 5.41-8.61 8.86-2.49 4.94-2.39 5.13 27.13 49.78 4.29 6.49 8.26 12.26 8.83 12.82 0.56 0.57 1.35 2.19 1.74 3.6 1.63 5.93-1.77 7.75-22.33 11.95-13.06 2.67-16.69 2.81-18.76 0.74-1.58-1.58-1.99-5.2-0.83-7.37 0.75-1.39 0.2-2.61-6.58-14.78-5.18-9.28-7.04-11.45-10.33-12.06-3.54-0.67-4.73-3.14-3.15-6.52 0.95-2.02 0.98-2.8 0.19-4.72-1.54-3.7-2.69-4.19-10.98-4.62-4.25-0.22-8.1-0.71-8.57-1.08-1.25-0.98-28.1-0.82-32.15 0.2-1.88 0.47-3.57 1.1-3.76 1.4-0.18 0.3-0.69 4.4-1.13 9.1-1.13 12.05-3.51 25.74-6.37 36.7-1.35 5.15-3.05 11.74-3.78 14.63s-1.79 6.31-2.35 7.61c-0.55 1.31-1.01 3.41-1.01 4.68 0 1.58-0.54 2.66-1.73 3.44-1.86 1.22-5.92 2.25-6.53 1.65zm61.17-88.63c4.04-3.32 5.39-6.35 4.15-9.34-1.17-2.82-3.63-5.09-6.22-5.73-2.03-0.5-2.06-0.45-2.06 2.97 0 1.91-0.53 4.74-1.17 6.27-1.14 2.75-5.31 7.67-6.49 7.67-1.06 0-0.64-2.79 0.58-3.79 2.32-1.94 3.49-5.27 2.99-8.59-0.85-5.64-1.33-5.9-10.77-5.77-9.54 0.13-13.44 1.29-15.39 4.59-1.74 2.95-1.67 3.46 1.14 9.2l2.47 5.02 13.8 0.04 13.81 0.05 3.16-2.59zm-258.95-80.602c0.42-0.672-2.72-5.728-5.72-9.231-0.95-1.101-3.06-3.718-4.71-5.815-4.2-5.366-7.14-5.126-7.14 0.582 0 2.396-1.89 5.358-3.42 5.358-0.82 0-1.08 1.063-1.08 4.378 0 2.407 0.22 4.602 0.5 4.877 0.74 0.746 21.1 0.605 21.57-0.149zm253.22-12.37c6.59-1.617 7.82-7.132 2.41-10.796-1.8-1.22-5-1.297-45.03-1.087-34.28 0.18-43.58 0.435-45.53 1.25-2.98 1.243-5.19 5.02-4.12 7.025 1.44 2.69 3.07 3.247 11.1 3.81 9.17 0.643 78.43 0.47 81.17-0.202z"
        />
    </g>
</svg>
