<?xml version="1.0" standalone="no"?>
<!DOCTYPE svg PUBLIC "-//W3C//DTD SVG 20010904//EN"
 "http://www.w3.org/TR/2001/REC-SVG-20010904/DTD/svg10.dtd">
<svg version="1.0" xmlns="http://www.w3.org/2000/svg"
 width="880.000000pt" height="972.000000pt" viewBox="0 0 880.000000 972.000000"
 preserveAspectRatio="xMidYMid meet">

<g transform="translate(0.000000,972.000000) scale(0.100000,-0.100000)"
fill="#000000" stroke="none">
<path d="M4285 9289 c-120 -18 -239 -69 -337 -147 -172 -134 -248 -360 -248
-732 0 -271 22 -378 116 -562 123 -243 156 -365 136 -502 -15 -103 -50 -173
-121 -245 -112 -114 -343 -240 -611 -335 -91 -33 -200 -77 -244 -98 -175 -88
-264 -221 -321 -477 -39 -174 -46 -298 -55 -891 -14 -908 -14 -911 -393 -1661
-233 -462 -280 -547 -429 -779 -55 -85 -106 -163 -112 -173 -6 -10 -29 -22
-51 -28 -176 -44 -327 -116 -555 -263 -74 -48 -151 -97 -170 -108 -25 -14 -44
-39 -67 -87 -33 -68 -77 -118 -239 -272 -106 -100 -141 -161 -157 -274 -8 -56
-8 -97 1 -158 43 -303 322 -504 812 -587 229 -38 328 -45 685 -45 415 0 585
12 1200 86 357 43 377 45 620 73 204 23 302 32 560 55 148 13 330 -4 1475
-140 540 -64 837 -83 1195 -76 409 8 673 45 904 126 153 54 250 111 342 201
91 90 133 169 156 298 13 69 14 101 6 158 -18 128 -46 171 -216 339 -125 123
-159 162 -186 217 l-34 67 -211 133 c-229 143 -376 216 -500 244 l-79 19 -92
140 c-142 218 -249 401 -349 604 -51 102 -147 292 -213 421 -164 321 -220 472
-257 695 -29 173 -38 344 -46 890 -8 544 -14 638 -49 797 -19 83 -72 217 -110
275 -76 119 -169 176 -426 268 -290 102 -549 245 -650 357 -80 89 -115 183
-115 307 0 94 35 205 119 381 93 193 96 203 116 295 21 96 30 396 16 515 -27
227 -83 369 -186 478 -103 109 -231 174 -390 198 -100 15 -151 16 -240 3z
m-996 -4630 c52 -152 66 -239 66 -414 0 -220 -34 -394 -141 -727 -136 -424
-159 -504 -194 -680 -12 -60 -24 -145 -28 -189 l-7 -82 -60 -33 c-82 -46 -172
-80 -292 -109 -109 -27 -322 -55 -420 -55 l-62 0 6 38 c10 65 61 185 111 260
27 40 96 127 153 193 258 299 370 456 482 677 163 320 284 726 332 1107 8 70
16 107 21 102 3 -2 18 -42 33 -88z m2306 -149 c63 -389 185 -757 350 -1050
116 -208 198 -320 407 -557 132 -150 190 -228 233 -313 35 -70 65 -160 65
-197 0 -22 -4 -23 -63 -23 -74 0 -279 24 -374 44 -109 23 -222 63 -308 109
l-80 42 -11 100 c-22 198 -67 377 -187 750 -108 335 -138 447 -162 616 -34
239 -5 502 76 694 l12 30 8 -40 c4 -22 20 -114 34 -205z"/>
</g>
</svg>
