<?xml version="1.0" standalone="no"?>
<!DOCTYPE svg PUBLIC "-//W3C//DTD SVG 20010904//EN"
 "http://www.w3.org/TR/2001/REC-SVG-20010904/DTD/svg10.dtd">
<svg version="1.0" xmlns="http://www.w3.org/2000/svg"
 width="100px" height="100px" viewBox="0 0 877.000000 877.000000"
 preserveAspectRatio="xMidYMid meet">

<g transform="translate(0.000000,877.000000) scale(0.100000,-0.100000)"
fill="#144d80" stroke="none">
<path d="M3988 8760 c-945 -85 -1805 -448 -2498 -1057 -144 -127 -362 -348
-471 -478 -504 -600 -845 -1337 -972 -2100 -28 -165 -53 -382 -45 -390 2 -3
527 -223 1166 -490 l1162 -484 63 39 c87 54 206 105 318 135 96 25 286 49 348
43 l34 -3 518 759 519 758 0 64 c0 34 7 114 15 176 90 685 599 1245 1265 1394
546 122 1109 -43 1505 -440 139 -141 220 -251 304 -414 71 -140 121 -281 153
-428 20 -96 23 -135 23 -334 -1 -194 -4 -239 -23 -327 -69 -317 -211 -585
-429 -813 -300 -314 -661 -479 -1111 -508 l-112 -7 -735 -529 -735 -529 0 -73
c0 -483 -307 -942 -756 -1132 -265 -112 -583 -123 -859 -31 -380 127 -681 444
-793 834 l-28 100 -830 346 c-456 191 -831 345 -833 343 -7 -6 82 -272 146
-434 362 -918 1048 -1707 1906 -2194 490 -278 1002 -447 1607 -532 182 -25
730 -31 940 -9 1365 139 2557 887 3281 2060 367 594 585 1274 640 1995 14 192
6 613 -15 800 -161 1380 -928 2579 -2102 3286 -524 315 -1095 509 -1734 590
-146 18 -682 27 -832 14z"/>
<path d="M5598 6605 c-421 -69 -762 -374 -882 -788 -78 -268 -51 -539 78 -802
193 -390 595 -624 1031 -602 378 20 721 239 904 578 168 311 173 708 13 1024
-110 218 -329 424 -548 515 -185 77 -411 106 -596 75z m377 -289 c259 -70 479
-276 566 -529 156 -456 -103 -944 -571 -1073 -101 -28 -310 -26 -415 4 -302
87 -537 345 -590 647 -32 187 -9 353 75 519 98 198 255 338 459 410 40 15 97
31 125 36 74 13 280 5 351 -14z"/>
<path d="M2880 3664 c-60 -12 -180 -47 -180 -53 0 -3 130 -60 288 -125 158
-65 314 -135 347 -154 126 -75 246 -225 296 -372 31 -90 38 -260 15 -363 -66
-297 -310 -506 -619 -532 -128 -11 -204 10 -534 148 -164 68 -300 123 -302
121 -7 -6 64 -119 120 -190 108 -135 261 -237 449 -300 80 -26 96 -28 255 -29
183 0 223 7 367 66 205 84 399 277 489 489 96 226 99 487 8 717 -49 123 -107
211 -209 313 -127 126 -247 196 -426 246 -58 16 -308 28 -364 18z"/>
</g>
</svg>
