<?xml version="1.0" encoding="utf-8"?>
<!-- Svg Vector Icons : http://www.onlinewebfonts.com/icon -->
<!DOCTYPE svg PUBLIC "-//W3C//DTD SVG 1.1//EN" "http://www.w3.org/Graphics/SVG/1.1/DTD/svg11.dtd">
<svg version="1.1" xmlns="http://www.w3.org/2000/svg" xmlns:xlink="http://www.w3.org/1999/xlink" x="0px" y="0px"
     viewBox="0 0 1000 1000" enable-background="new 0 0 1000 1000" xml:space="preserve">
    <g><path d="M900,766.7C838.7,719,662.2,639.8,662.2,639.8L547.6,850.6l-17-50.2l31.4-63.4l-62.8-63.4L436.3,737l31.4,63.4l-20.3,51.4L336.1,639.8c0,0-176.5,79.2-237.8,126.9C37,814.4,10,959.1,10,959.1h980C990,959.1,972.1,822.8,900,766.7L900,766.7L900,766.7z"/>
        <path d="M505,621.7c143.9-0.2,239.8-191.6,239.8-294.6c0-103-0.4-286.2-239.8-286.2c-239.3,0-239.8,183.2-239.8,286.2C265.2,430.1,361.1,621.9,505,621.7L505,621.7L505,621.7z"/>
        <path d="M505,621.7"/></g>
</svg>
