<?xml version="1.0" encoding="iso-8859-1"?>
<!DOCTYPE svg PUBLIC "-//W3C//DTD SVG 1.1//EN" "http://www.w3.org/Graphics/SVG/1.1/DTD/svg11.dtd">
<svg version="1.1" xmlns="http://www.w3.org/2000/svg" xmlns:xlink="http://www.w3.org/1999/xlink" x="0px" y="0px"
	 viewBox="0 0 350 350" style="enable-background:new 0 0 350 350;" xml:space="preserve">
<path fill="#0073aa" d="M175,0C78.505,0,0,78.505,0,175s78.505,175,175,175s175-78.505,175-175S271.495,0,175,0z M175,25
	c38.936,0,74.451,14.915,101.142,39.328c-2.561,0.141-5.476,0.766-8.782,2.089c-0.038,0.015-0.075,0.03-0.112,0.046
	c-6.579,2.82-10.869,6.914-12.751,12.168c-3.771,10.531,2.661,22.943,10.11,37.315c7.493,14.458,17.603,34.761,14.013,46.257
	c-7.119,26.295-28.512,92.204-28.512,92.204l-58.102-139.741h8.129c2.762,0,5-2.239,5-5s-2.238-5-5-5h-62.52c-2.762,0-5,2.239-5,5
	s2.238,5,5,5h11.946l21.52,53.569c-0.364,0.463-0.663,0.989-0.851,1.584l-26.153,83.225L86.549,114.668h4.024c2.762,0,5-2.239,5-5
	s-2.238-5-5-5H42.546C67.794,57.311,117.691,25,175,25z M25,175c0-21.452,4.535-41.86,12.684-60.332h5.422l80.906,201.404
	C66.326,295.158,25,239.816,25,175z M175,325c-14.389,0-28.309-2.042-41.49-5.841c0.311-0.428,0.559-0.908,0.724-1.432
	l42.531-135.342l53.114,132.22C212.874,321.313,194.359,325,175,325z M243.635,308.351l42.598-135.532
	c6.33-20.381,6.98-30.393,8.935-44.211c2.45-17.331,2.95-31.024,1.481-41.261C314.477,112.02,325,142.302,325,175
	C325,232.992,291.917,283.399,243.635,308.351z"/>
</svg>
